HIERARCHY
ROOT Hips
{
	OFFSET 0.00000 0.00000 0.00000
	CHANNELS 6 Xposition Yposition Zposition Zrotation Yrotation Xrotation 
	JOINT LHipJoint
	{
		OFFSET 0 0 0
		CHANNELS 3 Zrotation Yrotation Xrotation
		JOINT LeftUpLeg
		{
			OFFSET 1.56857 -1.73443 1.15205
			CHANNELS 3 Zrotation Yrotation Xrotation
			JOINT LeftLeg
			{
				OFFSET 2.39362 -6.57643 0.00000
				CHANNELS 3 Zrotation Yrotation Xrotation
				JOINT LeftFoot
				{
					OFFSET 2.50952 -6.89485 0.00000
					CHANNELS 3 Zrotation Yrotation Xrotation
					JOINT LeftToeBase
					{
						OFFSET 0.17171 -0.47178 1.88682
						CHANNELS 3 Zrotation Yrotation Xrotation
						End Site
						{
							OFFSET 0.00000 -0.00000 0.98146
						}
					}
				}
			}
		}
	}
	JOINT RHipJoint
	{
		OFFSET 0 0 0
		CHANNELS 3 Zrotation Yrotation Xrotation
		JOINT RightUpLeg
		{
			OFFSET -1.28153 -1.73443 1.15205
			CHANNELS 3 Zrotation Yrotation Xrotation
			JOINT RightLeg
			{
				OFFSET -2.26861 -6.23296 0.00000
				CHANNELS 3 Zrotation Yrotation Xrotation
				JOINT RightFoot
				{
					OFFSET -2.54143 -6.98254 0.00000
					CHANNELS 3 Zrotation Yrotation Xrotation
					JOINT RightToeBase
					{
						OFFSET -0.23309 -0.64041 1.93119
						CHANNELS 3 Zrotation Yrotation Xrotation
						End Site
						{
							OFFSET -0.00000 -0.00000 1.02013
						}
					}
				}
			}
		}
	}
	JOINT LowerBack
	{
		OFFSET 0 0 0
		CHANNELS 3 Zrotation Yrotation Xrotation
		JOINT Spine
		{
			OFFSET -0.07096 2.10460 -0.27878
			CHANNELS 3 Zrotation Yrotation Xrotation
			JOINT Spine1
			{
				OFFSET -0.00826 2.13662 -0.08279
				CHANNELS 3 Zrotation Yrotation Xrotation
				JOINT Neck
				{
					OFFSET 0 0 0
					CHANNELS 3 Zrotation Yrotation Xrotation
					JOINT Neck1
					{
						OFFSET 0.03239 1.77799 0.24435
						CHANNELS 3 Zrotation Yrotation Xrotation
						JOINT Head
						{
							OFFSET 0.01026 1.74194 -0.49664
							CHANNELS 3 Zrotation Yrotation Xrotation
							End Site
							{
								OFFSET 0.00170 1.83057 -0.19653
							}
						}
					}
				}
				JOINT LeftShoulder
				{
					OFFSET 0 0 0
					CHANNELS 3 Zrotation Yrotation Xrotation
					JOINT LeftArm
					{
						OFFSET 3.19178 1.35907 -0.31412
						CHANNELS 3 Zrotation Yrotation Xrotation
						JOINT LeftForeArm
						{
							OFFSET 4.85247 -0.00000 -0.00000
							CHANNELS 3 Zrotation Yrotation Xrotation
							JOINT LeftHand
							{
								OFFSET 3.55584 -0.00000 0.00000
								CHANNELS 3 Zrotation Yrotation Xrotation
								JOINT LeftFingerBase
								{
									OFFSET 0 0 0
									CHANNELS 3 Zrotation Yrotation Xrotation
									JOINT LeftHandIndex1
									{
										OFFSET 0.69320 -0.00000 0.00000
										CHANNELS 3 Zrotation Yrotation Xrotation
										End Site
										{
											OFFSET 0.55888 -0.00000 0.00000
										}
									}
								}
								JOINT LThumb
								{
									OFFSET 0 0 0
									CHANNELS 3 Zrotation Yrotation Xrotation
									End Site
									{
										OFFSET 0.56741 -0.00000 0.56741
									}
								}
							}
						}
					}
				}
				JOINT RightShoulder
				{
					OFFSET 0 0 0
					CHANNELS 3 Zrotation Yrotation Xrotation
					JOINT RightArm
					{
						OFFSET -3.28999 1.24191 -0.26899
						CHANNELS 3 Zrotation Yrotation Xrotation
						JOINT RightForeArm
						{
							OFFSET -4.64462 -0.00000 0.00000
							CHANNELS 3 Zrotation Yrotation Xrotation
							JOINT RightHand
							{
								OFFSET -3.40703 -0.00000 0.00000
								CHANNELS 3 Zrotation Yrotation Xrotation
								JOINT RightFingerBase
								{
									OFFSET 0 0 0
									CHANNELS 3 Zrotation Yrotation Xrotation
									JOINT RightHandIndex1
									{
										OFFSET -0.61958 -0.00000 0.00000
										CHANNELS 3 Zrotation Yrotation Xrotation
										End Site
										{
											OFFSET -0.49952 -0.00000 0.00000
										}
									}
								}
								JOINT RThumb
								{
									OFFSET 0 0 0
									CHANNELS 3 Zrotation Yrotation Xrotation
									End Site
									{
										OFFSET -0.50715 -0.00000 0.50715
									}
								}
							}
						}
					}
				}
			}
		}
	}
}
MOTION
Frames: 16
Frame Time: 0.0215054
0.00 0.00 0.00 201.4490 77.0248 -138.1790 0.0000 0.0000 0.0000 4.8566 3.3998 -62.0750 17.1761 19.8077 81.7180 42.9160 30.4549 -179.6661 2.7847 -10.3380 -30.0784 0.0000 0.0000 0.0000 40.0632 0.5575 -3.9938 -1.6235 -8.0335 22.8159 0.4736 13.5257 -1.5115 -3.3408 -11.2274 33.0506 1.5107 2.2222 24.8471 -6.7859 3.5559 7.2816 -9.4501 2.1237 -5.1554 2.4357 -4.3186 -22.6298 3.4322 -7.5223 18.7534 -0.2970 -2.8578 9.7299 0.0000 0.0000 0.0000 -67.8977 -18.5767 83.3810 75.0765 -59.1415 -47.1131 -0.0000 -0.0000 18.4999 31.8686 -27.2519 -15.8902 -7.1250 0.0000 -0.0000 0.9756 -1.2531 -0.9968 0.0000 0.0000 0.0000 -75.1928 68.3414 -82.2956 -32.1350 42.6545 -12.8322 0.0000 -0.0000 -14.0608 -20.7587 -22.0886 8.1120 7.1250 -0.0000 -0.0000 8.4439 -53.2445 -1.7221
0.00 0.00 0.00 208.9100 77.2430 -130.0680 0.0000 0.0000 0.0000 4.5970 3.0220 -64.6559 18.5345 19.9484 85.7118 52.4799 50.4875 -156.6169 2.6050 -10.0264 -29.0623 0.0000 0.0000 0.0000 40.1891 -0.4205 -3.3144 -1.3272 -7.2956 20.5941 0.5195 12.6498 4.4941 -4.3746 -12.6429 38.0460 2.5964 2.8890 24.0881 -6.2130 4.6642 7.2778 -9.6487 2.6632 -4.5570 2.3816 -4.5028 -22.7600 3.3538 -7.7265 18.3147 -0.3428 -2.9840 9.5957 -0.0000 -0.0000 0.0000 -66.5917 -18.3640 82.0032 74.5873 -59.0831 -46.6933 -0.0000 -0.0000 17.3156 32.5987 -28.1798 -16.8040 -7.1250 0.0000 -0.0000 1.2217 -2.4668 -1.2735 -0.0000 -0.0000 0.0000 -81.7350 77.4973 -93.1425 -31.6775 42.2885 -12.5233 0.0000 -0.0000 -9.2805 -21.5367 -22.7314 8.6707 7.1250 -0.0000 -0.0000 7.8881 -54.0545 -1.7640
0.00 0.00 0.00 217.7510 77.9429 -121.0920 0.0000 0.0000 0.0000 3.6426 3.3031 -65.6883 19.6218 19.9966 88.8941 62.0270 62.4356 -114.9117 2.5009 -9.8395 -28.4584 0.0000 0.0000 0.0000 39.4022 -2.3552 -2.2480 -1.0910 -6.6380 18.6473 0.2721 11.2223 10.9738 -5.5076 -13.9335 42.9718 3.1692 3.8014 24.0671 -5.7140 5.9545 7.1610 -9.7415 3.2734 -4.4392 2.1387 -4.7613 -22.6903 3.4316 -7.9963 17.8932 -0.3098 -3.1368 9.4488 -0.0000 0.0000 0.0000 -65.5209 -17.6597 80.5876 73.9424 -59.0029 -46.1403 -0.0000 -0.0000 15.8409 33.3153 -28.8051 -17.5724 -7.1250 0.0000 -0.0000 1.5078 -3.3551 -1.5940 -0.0000 0.0000 0.0000 -95.7816 83.9553 -110.8474 -30.7725 41.5464 -11.9187 0.0000 -0.0000 -7.3676 -22.4170 -24.1692 9.5866 7.1250 -0.0000 -0.0000 7.5303 -55.7162 -1.9883
0.00 0.00 0.00 228.0470 78.5739 -110.5730 0.0000 0.0000 0.0000 2.4391 3.6987 -66.3963 19.6095 19.9963 88.8580 -8.1854 55.5452 -64.2076 2.5001 -9.8380 -28.4538 0.0000 0.0000 0.0000 37.9929 -4.3785 -1.3547 -0.8752 -5.9644 16.6811 -0.3664 8.1251 17.1717 -6.5198 -14.9138 47.0338 3.3855 4.8898 23.7450 -5.0620 7.3970 7.1072 -9.4344 3.9642 -4.1379 1.6398 -5.0744 -22.3696 3.5765 -8.2524 17.2656 -0.2020 -3.3055 9.2013 -0.0000 -0.0000 0.0000 -64.9645 -16.7824 78.8772 73.1582 -58.9006 -45.4684 -0.0000 -0.0000 14.5637 33.8428 -29.3864 -18.2125 -7.1250 0.0000 -0.0000 1.6872 -4.1459 -1.8055 -0.0000 -0.0000 0.0000 -178.9915 88.2338 164.6962 -30.3894 41.2248 -11.6654 0.0000 -0.0000 -8.9124 -24.9764 -24.3883 10.8873 7.1250 -0.0000 -0.0000 4.8855 -56.4850 -1.3780
0.00 0.00 0.00 234.9090 78.1221 -103.0410 0.0000 0.0000 0.0000 1.8511 3.2995 -67.7499 18.5874 19.9521 85.8667 -2.9413 36.0268 -38.1065 2.2218 -9.3136 -26.7813 0.0000 0.0000 0.0000 37.0995 -6.9868 -1.3500 -0.6773 -5.2624 14.6585 -1.2100 3.6619 22.3925 -6.8925 -15.2407 48.4666 4.4799 5.5014 23.7253 -4.6031 8.3939 6.6836 -9.8051 4.4011 -4.3284 1.4256 -5.4054 -22.2995 3.9698 -8.7100 17.0726 -0.0959 -3.4946 9.1573 0.0000 -0.0000 0.0000 -63.5612 -15.6977 77.1159 72.8624 -58.8606 -45.2152 -0.0000 -0.0000 13.2972 33.5820 -29.6230 -18.1689 -7.1250 0.0000 -0.0000 1.4893 -4.3245 -1.5979 0.0000 -0.0000 0.0000 116.4420 82.4674 95.1183 -29.1759 40.1764 -10.8740 0.0000 -0.0000 -6.7076 -20.6350 -24.0635 8.7294 7.1250 -0.0000 -0.0000 9.3500 -55.2450 -2.3669
0.00 0.00 0.00 250.5170 76.8641 -87.8276 0.0000 0.0000 0.0000 0.6216 4.0309 -66.8487 15.2628 19.4532 76.0271 0.0724 -9.2232 -7.7015 0.8889 -6.0095 -16.8121 0.0000 0.0000 0.0000 34.3110 -12.3646 0.7325 -0.4507 -4.3069 11.9417 -2.1510 4.0445 29.3822 -5.1157 -13.5130 41.3204 6.0972 6.9017 23.9053 -3.1519 10.6456 6.9729 -9.5685 5.5288 -3.6618 0.5196 -5.9753 -23.1425 4.2731 -9.2888 17.0058 0.0416 -3.7775 9.3457 0.0000 -0.0000 0.0000 -61.2356 -14.2008 72.9148 72.2277 -58.7722 -44.6722 -0.0000 -0.0000 9.8748 31.5418 -29.8556 -16.9911 -7.1250 0.0000 -0.0000 0.2847 -3.9801 -0.3037 0.0000 -0.0000 0.0000 101.2695 71.6500 77.4976 -27.7750 38.9082 -9.9820 0.0000 -0.0000 -9.9212 -23.8420 -24.5106 10.3892 7.1250 -0.0000 -0.0000 6.1520 -56.3698 -1.7197
0.00 0.00 0.00 261.1140 73.7245 -78.0431 0.0000 0.0000 0.0000 -1.1854 4.8222 -64.5710 12.4136 18.5601 67.2938 -0.1436 -10.2815 -4.5629 0.2400 -3.1528 -8.7044 0.0000 0.0000 0.0000 33.6076 -9.0573 5.2475 -0.6525 -5.1670 14.3854 -0.3790 4.3935 14.0836 -3.5302 -11.5076 34.0115 9.2577 7.7643 24.8693 -0.9158 12.7067 7.2295 -9.3623 6.5551 -3.2950 0.2314 -6.2547 -23.8368 3.7146 -9.4490 16.7176 -0.1426 -3.9392 9.3449 0.0000 -0.0000 0.0000 -56.2115 -11.3273 65.7522 70.3496 -58.4895 -43.0686 -0.0000 -0.0000 5.1136 29.6322 -28.5732 -15.2194 -7.1250 0.0000 -0.0000 -0.5671 -2.0881 0.5874 0.0000 -0.0000 0.0000 95.0831 56.7716 62.8801 -22.9982 34.0868 -7.1373 0.0000 -0.0000 -5.4744 -23.9938 -23.7312 10.1556 7.1250 -0.0000 -0.0000 5.6949 -55.5863 -1.4831
0.00 0.00 0.00 273.6760 67.9017 -68.4923 0.0000 0.0000 0.0000 -4.5067 7.4347 -54.7212 10.7032 17.7868 61.8140 0.1580 -5.4365 -7.5041 0.1344 -2.3626 -6.5089 0.0000 0.0000 0.0000 29.8722 -1.1116 8.4111 -3.1782 -10.9781 32.2062 0.0880 -5.4699 -3.6236 -1.3510 -7.3583 20.7812 14.8729 6.3317 26.5033 3.5164 12.8861 8.4410 -7.6757 6.7937 -2.5449 0.4608 -4.4900 -25.2053 -0.1874 -6.2712 18.6555 -1.1182 -2.8664 10.0488 0.0000 0.0000 0.0000 -45.0202 -3.1490 48.3363 60.0631 -56.3267 -34.3936 -0.0000 0.0000 -5.5525 25.6050 -25.5382 -11.6731 -7.1250 0.0000 -0.0000 -2.4691 2.0866 2.3798 0.0000 0.0000 0.0000 84.6257 30.4375 39.6683 -16.6950 26.4540 -3.9505 0.0000 0.0000 3.0518 -30.3309 -21.3481 12.0236 7.1250 -0.0000 -0.0000 -1.7472 -54.3339 0.4008
0.00 0.00 0.00 282.7240 67.6220 -62.5322 0.0000 0.0000 0.0000 -11.2316 10.6197 -39.2068 8.5401 16.5025 54.4857 0.0592 -8.9675 -7.3326 0.7531 5.5426 15.4629 0.0000 0.0000 0.0000 21.4420 7.5012 6.9543 -7.7358 -15.9215 51.6054 0.1535 -7.0194 -3.7673 -1.8574 -8.5625 24.4359 14.4224 3.6506 27.3086 5.4796 9.6884 8.8122 -4.7883 5.1482 -3.6830 1.5184 -1.5798 -22.1860 -1.2898 -2.3222 19.0481 -1.0343 -1.0975 9.6524 -0.0000 0.0000 0.0000 -32.0641 2.7576 35.4972 47.1175 -51.7647 -23.8907 -0.0000 0.0000 -4.5722 26.3155 -26.2236 -12.3274 -7.1250 0.0000 -0.0000 -2.1386 1.2077 2.0945 -0.0000 0.0000 0.0000 73.1462 8.6099 25.8930 -17.6968 27.7673 -4.4071 0.0000 -0.0000 -1.0781 -32.7542 -20.2172 12.5341 7.1250 -0.0000 -0.0000 -4.5393 -53.5715 0.9583
0.00 0.00 0.00 316.5500 73.4144 -31.9079 0.0000 0.0000 0.0000 -29.4748 15.4656 -23.5255 5.2273 13.6353 41.7958 1.7512 -12.0274 -23.9474 0.3587 3.8477 10.6485 0.0000 0.0000 0.0000 -3.7351 13.8271 -6.0150 -13.5260 -18.9639 70.7516 -0.0394 -3.1611 -6.1826 -2.2237 -9.3172 26.7928 2.2659 3.3490 28.2897 4.0367 5.8957 8.9928 1.2257 3.0898 -5.7155 6.9160 2.4396 -19.8183 -2.0423 1.7953 18.2230 -1.5901 1.1158 9.0799 0.0000 0.0000 0.0000 -14.6034 4.9015 19.0777 36.8518 -46.0900 -16.1332 -0.0000 0.0000 -2.2073 33.6954 -23.4197 -14.8438 -7.1250 0.0000 -0.0000 2.7586 2.5055 -2.6385 0.0000 0.0000 0.0000 53.6984 -8.9036 13.9780 -18.5366 28.8388 -4.8053 0.0000 -0.0000 -5.6707 -30.3341 -24.4755 13.6274 7.1250 -0.0000 -0.0000 -1.0248 -57.7848 0.3207
0.00 0.00 0.00 332.1010 76.8128 -11.2622 0.0000 0.0000 0.0000 -41.4061 11.0459 -11.2035 2.1627 9.1971 26.4138 1.2862 -7.5391 -20.2713 0.0628 1.6173 4.4491 0.0000 0.0000 0.0000 -14.9335 13.6260 -42.9020 -18.5006 -19.9460 85.6122 -0.4361 3.6998 -11.7568 -0.2314 -3.0964 8.5473 -2.3641 -0.3436 25.7694 6.4896 0.1890 9.8132 8.4707 0.2267 -3.3854 10.3687 6.9738 -18.8868 -5.8571 7.8084 15.3062 -2.6266 3.7111 8.5131 0.0000 -0.0000 0.0000 -2.8473 1.0999 9.2743 37.8203 -46.7241 -16.8346 -0.0000 0.0000 -3.5452 39.4274 -20.0543 -15.7455 -7.1250 0.0000 -0.0000 6.8770 4.8398 -6.3189 0.0000 -0.0000 0.0000 23.9807 -24.9868 11.5916 -24.5697 35.7609 -8.0371 0.0000 -0.0000 -12.9493 -33.2568 -29.2946 17.7905 7.1250 -0.0000 -0.0000 -3.1066 -63.8130 1.4175
0.00 0.00 0.00 344.5280 76.8030 3.3810 0.0000 0.0000 0.0000 -46.1238 11.4235 -4.0025 0.7794 5.6364 15.7330 0.0366 -3.9561 -4.1099 0.1939 2.8358 7.8219 0.0000 0.0000 0.0000 -13.2550 11.4890 -57.8717 -16.8812 -19.7652 80.8468 -0.6901 4.0387 -14.8454 -0.0001 0.0615 -0.1690 -1.0884 -2.1845 25.9600 6.7113 -1.8015 10.2392 8.5233 -0.7465 -2.7074 11.5052 8.4393 -19.8009 -7.4112 9.6859 15.0046 -3.0288 4.4767 8.8720 -0.0000 -0.0000 0.0000 -1.4379 -5.0777 13.2433 44.2345 -50.3879 -21.6474 -0.0000 0.0000 -5.2387 38.6725 -21.9308 -16.6427 -7.1250 0.0000 -0.0000 6.0460 2.8313 -5.7727 -0.0000 -0.0000 0.0000 19.4622 -29.5109 9.6047 -28.2829 39.3754 -10.3027 0.0000 -0.0000 -16.9695 -31.6747 -28.4333 16.3716 7.1250 -0.0000 -0.0000 -1.3807 -62.4399 0.5853
0.00 0.00 0.00 346.2860 70.3704 8.3297 0.0000 0.0000 0.0000 -44.9119 16.8667 2.7524 0.3525 3.8145 10.5553 0.1281 -1.6136 7.5548 0.0457 1.3796 3.7940 0.0000 0.0000 0.0000 6.7613 14.5749 -69.7902 -11.5400 -18.1894 64.5232 0.6507 18.3040 -5.7551 -0.2740 3.3669 -9.3019 -0.3859 -3.5066 26.2973 7.1033 -3.3399 10.3005 9.0022 -1.5382 -2.5652 14.0723 12.2041 -18.6961 -10.0737 14.8630 15.2162 -3.4789 6.7835 9.7046 -0.0000 0.0000 0.0000 -15.3961 -16.4693 26.2696 55.9888 -55.1427 -31.0258 -0.0000 0.0000 -3.4213 36.3554 -22.9252 -15.9985 -7.1250 0.0000 -0.0000 4.4555 2.3465 -4.2824 -0.0000 0.0000 0.0000 26.1596 -23.8293 2.6250 -44.5553 50.5487 -21.8948 0.0000 -0.0000 -22.9179 -28.9088 -26.2668 13.7333 7.1250 -0.0000 -0.0000 1.1737 -59.3884 -0.4125
0.00 0.00 0.00 358.5250 68.1238 21.6564 0.0000 0.0000 0.0000 -45.7329 14.9170 6.7627 1.8946 8.6431 24.6851 0.0204 2.1141 2.7429 0.0572 1.5434 4.2454 0.0000 0.0000 0.0000 8.8201 16.1063 -67.0750 -10.0979 -17.4646 59.8152 0.7957 16.2870 0.9072 -1.9282 -8.7148 24.9073 -4.2987 -3.7532 21.2317 6.0871 -4.8020 9.9930 10.0660 -2.5187 0.0745 14.8823 13.2155 -13.5325 -8.4995 16.2526 12.1961 -3.1266 7.8150 7.8790 0.0000 0.0000 0.0000 -42.4293 -24.6429 39.3474 50.6852 -53.2681 -26.7223 -0.0000 -0.0000 4.5880 32.4795 -20.0982 -12.3387 -7.1250 0.0000 -0.0000 2.5561 6.5502 -2.2501 0.0000 0.0000 0.0000 40.1306 -18.0005 -0.3362 -62.7242 56.9932 -36.6169 0.0000 -0.0000 -23.2529 -24.5062 -23.7376 10.3984 7.1250 -0.0000 -0.0000 5.1528 -55.6999 -1.3556
0.00 0.00 0.00 369.5460 69.7277 31.2206 0.0000 0.0000 0.0000 -42.8905 13.2381 10.3578 4.3099 12.5618 37.7496 -0.0544 4.4167 0.0509 0.0717 1.7278 4.7540 0.0000 0.0000 0.0000 4.1942 15.6135 -58.8735 -9.8457 -17.3222 58.9714 -1.4732 10.3634 -21.8529 -0.0935 1.9715 -5.4270 -6.6157 -4.1497 20.7472 6.0194 -5.7873 8.9555 11.5355 -3.0578 -0.3408 13.7688 13.1868 -12.8846 -5.3488 16.0524 13.5066 -2.0131 7.9389 7.8076 0.0000 -0.0000 0.0000 -61.9086 -21.5666 50.8013 46.0985 -51.2954 -23.0929 -0.0000 -0.0000 7.1855 31.8822 -19.8397 -11.9204 -7.1250 0.0000 -0.0000 2.2184 6.9731 -1.9342 0.0000 -0.0000 0.0000 49.6615 -15.2898 0.0552 -72.5968 58.8241 -44.9879 0.0000 -0.0000 -23.3319 -24.6751 -23.0045 10.1787 7.1250 -0.0000 -0.0000 4.7198 -54.9613 -1.1565
0.00 0.00 0.00 365.8150 74.9260 26.1176 0.0000 0.0000 0.0000 -28.3746 9.8415 13.3179 9.0050 16.8110 56.1075 -0.1497 7.0616 -4.4418 0.1319 2.3405 6.4477 0.0000 0.0000 0.0000 5.0646 16.9117 -54.5564 -12.0801 -18.4243 66.2424 -2.6513 2.7474 -30.1358 -0.3368 3.7297 -10.3174 -2.5473 -4.5064 22.6690 6.8581 -5.3391 8.0968 10.2681 -2.5704 -2.7246 15.1736 13.1046 -13.8213 -4.8323 15.4100 12.8646 -2.0921 7.7256 7.7600 -0.0000 0.0000 0.0000 -78.8833 -9.8395 59.0153 38.3489 -47.0607 -17.2206 -0.0000 -0.0000 6.4147 38.0959 -24.5062 -18.0140 -7.1250 0.0000 -0.0000 5.1738 0.0065 -5.1945 -0.0000 0.0000 0.0000 63.9453 -9.7614 3.8010 -81.4479 59.7218 -52.6006 0.0000 -0.0000 -24.3577 -28.2404 -23.5135 12.0947 7.1250 -0.0000 -0.0000 1.0463 -56.2605 -0.2890
